%TF.GenerationSoftware,KiCad,Pcbnew,9.0.2*%
%TF.CreationDate,2025-08-11T22:05:56-07:00*%
%TF.ProjectId,coupler_and_adapter,636f7570-6c65-4725-9f61-6e645f616461,rev?*%
%TF.SameCoordinates,PX5e811d8PY1312d00*%
%TF.FileFunction,Paste,Bot*%
%TF.FilePolarity,Positive*%
%FSLAX46Y46*%
G04 Gerber Fmt 4.6, Leading zero omitted, Abs format (unit mm)*
G04 Created by KiCad (PCBNEW 9.0.2) date 2025-08-11 22:05:56*
%MOMM*%
%LPD*%
G01*
G04 APERTURE LIST*
G04 Aperture macros list*
%AMRoundRect*
0 Rectangle with rounded corners*
0 $1 Rounding radius*
0 $2 $3 $4 $5 $6 $7 $8 $9 X,Y pos of 4 corners*
0 Add a 4 corners polygon primitive as box body*
4,1,4,$2,$3,$4,$5,$6,$7,$8,$9,$2,$3,0*
0 Add four circle primitives for the rounded corners*
1,1,$1+$1,$2,$3*
1,1,$1+$1,$4,$5*
1,1,$1+$1,$6,$7*
1,1,$1+$1,$8,$9*
0 Add four rect primitives between the rounded corners*
20,1,$1+$1,$2,$3,$4,$5,0*
20,1,$1+$1,$4,$5,$6,$7,0*
20,1,$1+$1,$6,$7,$8,$9,0*
20,1,$1+$1,$8,$9,$2,$3,0*%
G04 Aperture macros list end*
%ADD10R,1.950000X0.650000*%
%ADD11RoundRect,0.250000X-0.325000X-1.100000X0.325000X-1.100000X0.325000X1.100000X-0.325000X1.100000X0*%
%ADD12RoundRect,0.225000X-0.250000X0.225000X-0.250000X-0.225000X0.250000X-0.225000X0.250000X0.225000X0*%
%ADD13R,2.000000X3.500000*%
%ADD14RoundRect,0.250000X0.325000X1.100000X-0.325000X1.100000X-0.325000X-1.100000X0.325000X-1.100000X0*%
G04 APERTURE END LIST*
D10*
%TO.C,IC2*%
X41092000Y-32137000D03*
X41092000Y-33407000D03*
X41092000Y-34677000D03*
X41092000Y-35947000D03*
X41092000Y-37217000D03*
X41092000Y-38487000D03*
X41092000Y-39757000D03*
X41092000Y-41027000D03*
X31642000Y-41027000D03*
X31642000Y-39757000D03*
X31642000Y-38487000D03*
X31642000Y-37217000D03*
X31642000Y-35947000D03*
X31642000Y-34677000D03*
X31642000Y-33407000D03*
X31642000Y-32137000D03*
%TD*%
D11*
%TO.C,C9*%
X11678000Y-16516000D03*
X14628000Y-16516000D03*
%TD*%
D12*
%TO.C,C2*%
X43428000Y-31870000D03*
X43428000Y-33420000D03*
%TD*%
%TO.C,C4*%
X29204000Y-19919600D03*
X29204000Y-21469600D03*
%TD*%
D13*
%TO.C,PS2*%
X8724000Y-11690000D03*
X11424000Y-11690000D03*
%TD*%
D10*
%TO.C,IC3*%
X41116600Y-20072000D03*
X41116600Y-21342000D03*
X41116600Y-22612000D03*
X41116600Y-23882000D03*
X41116600Y-25152000D03*
X41116600Y-26422000D03*
X41116600Y-27692000D03*
X41116600Y-28962000D03*
X31666600Y-28962000D03*
X31666600Y-27692000D03*
X31666600Y-26422000D03*
X31666600Y-25152000D03*
X31666600Y-23882000D03*
X31666600Y-22612000D03*
X31666600Y-21342000D03*
X31666600Y-20072000D03*
%TD*%
D12*
%TO.C,C1*%
X43428000Y-43948000D03*
X43428000Y-45498000D03*
%TD*%
D10*
%TO.C,IC1*%
X41116600Y-44303600D03*
X41116600Y-45573600D03*
X41116600Y-46843600D03*
X41116600Y-48113600D03*
X41116600Y-49383600D03*
X41116600Y-50653600D03*
X41116600Y-51923600D03*
X41116600Y-53193600D03*
X31666600Y-53193600D03*
X31666600Y-51923600D03*
X31666600Y-50653600D03*
X31666600Y-49383600D03*
X31666600Y-48113600D03*
X31666600Y-46843600D03*
X31666600Y-45573600D03*
X31666600Y-44303600D03*
%TD*%
D14*
%TO.C,C7*%
X7868000Y-16516000D03*
X4918000Y-16516000D03*
%TD*%
D12*
%TO.C,C6*%
X29204000Y-31870000D03*
X29204000Y-33420000D03*
%TD*%
%TO.C,C3*%
X43555000Y-19805000D03*
X43555000Y-21355000D03*
%TD*%
%TO.C,C5*%
X29204000Y-44062000D03*
X29204000Y-45612000D03*
%TD*%
M02*
