%TF.GenerationSoftware,KiCad,Pcbnew,9.0.2*%
%TF.CreationDate,2025-08-11T22:05:56-07:00*%
%TF.ProjectId,coupler_and_adapter,636f7570-6c65-4725-9f61-6e645f616461,rev?*%
%TF.SameCoordinates,PX5e811d8PY1312d00*%
%TF.FileFunction,Profile,NP*%
%FSLAX46Y46*%
G04 Gerber Fmt 4.6, Leading zero omitted, Abs format (unit mm)*
G04 Created by KiCad (PCBNEW 9.0.2) date 2025-08-11 22:05:56*
%MOMM*%
%LPD*%
G01*
G04 APERTURE LIST*
%TA.AperFunction,Profile*%
%ADD10C,0.100000*%
%TD*%
G04 APERTURE END LIST*
D10*
X62735000Y-13683333D02*
X62735000Y-21341666D01*
X0Y-70000000D02*
X59950000Y-70000000D01*
X61341500Y-33000000D02*
X59950000Y-33000000D01*
X61343500Y-48658333D02*
X62735000Y-48658333D01*
X61341500Y-9683333D02*
X59950000Y-9683333D01*
X62735000Y-21341666D02*
X61343500Y-21341666D01*
X62735000Y-56316666D02*
X61343500Y-56316666D01*
X59950000Y-44658333D02*
X59950000Y-37000000D01*
X98810000Y-69975000D02*
X98810000Y-25000D01*
X59950000Y-21341666D02*
X59950000Y-13683333D01*
X61341500Y-25341666D02*
X61343500Y-25341666D01*
X98810000Y-25000D02*
X62735000Y-25000D01*
X62735000Y-48658333D02*
X62735000Y-56316666D01*
X61343500Y-13683333D02*
X62735000Y-13683333D01*
X61343500Y-25341666D02*
X62735000Y-25341666D01*
X61341500Y-44658333D02*
X59950000Y-44658333D01*
X62735000Y-25000D02*
X62735000Y-9683333D01*
X59950000Y-33000000D02*
X59950000Y-25341666D01*
X59950000Y-48658333D02*
X61341500Y-48658333D01*
X61341500Y-21341666D02*
X59950000Y-21341666D01*
X61343500Y-37000000D02*
X62735000Y-37000000D01*
X59950000Y-9683333D02*
X59950000Y0D01*
X59950000Y-25341666D02*
X61341500Y-25341666D01*
X62735000Y-69975000D02*
X98810000Y-69975000D01*
X61341500Y-13683333D02*
X61343500Y-13683333D01*
X59950000Y-37000000D02*
X61341500Y-37000000D01*
X62735000Y-33000000D02*
X61343500Y-33000000D01*
X61343500Y-21341666D02*
X61341500Y-21341666D01*
X59950000Y0D02*
X0Y0D01*
X62735000Y-25341666D02*
X62735000Y-33000000D01*
X61341500Y-56316666D02*
X59950000Y-56316666D01*
X61343500Y-56316666D02*
X61341500Y-56316666D01*
X59950000Y-13683333D02*
X61341500Y-13683333D01*
X61343500Y-33000000D02*
X61341500Y-33000000D01*
X59950000Y-56316666D02*
X59950000Y-48658333D01*
X59950000Y-70000000D02*
X59950000Y-60316666D01*
X61343500Y-9683333D02*
X61341500Y-9683333D01*
X61341500Y-60316666D02*
X61343500Y-60316666D01*
X0Y0D02*
X0Y-70000000D01*
X62735000Y-9683333D02*
X61343500Y-9683333D01*
X62735000Y-44658333D02*
X61343500Y-44658333D01*
X61341500Y-48658333D02*
X61343500Y-48658333D01*
X61341500Y-37000000D02*
X61343500Y-37000000D01*
X62735000Y-60316666D02*
X62735000Y-69975000D01*
X59950000Y-60316666D02*
X61341500Y-60316666D01*
X61343500Y-44658333D02*
X61341500Y-44658333D01*
X62735000Y-37000000D02*
X62735000Y-44658333D01*
X61343500Y-60316666D02*
X62735000Y-60316666D01*
M02*
