%TF.GenerationSoftware,KiCad,Pcbnew,9.0.2*%
%TF.CreationDate,2025-08-11T22:05:56-07:00*%
%TF.ProjectId,coupler_and_adapter,636f7570-6c65-4725-9f61-6e645f616461,rev?*%
%TF.SameCoordinates,PX5e811d8PY1312d00*%
%TF.FileFunction,Legend,Top*%
%TF.FilePolarity,Positive*%
%FSLAX46Y46*%
G04 Gerber Fmt 4.6, Leading zero omitted, Abs format (unit mm)*
G04 Created by KiCad (PCBNEW 9.0.2) date 2025-08-11 22:05:56*
%MOMM*%
%LPD*%
G01*
G04 APERTURE LIST*
%ADD10C,0.300000*%
%ADD11C,0.500000*%
%ADD12C,0.200000*%
%ADD13C,0.100000*%
%ADD14C,0.150100*%
%ADD15C,0.150000*%
%ADD16C,0.254000*%
%ADD17C,0.120000*%
%ADD18C,0.152400*%
%ADD19C,0.508000*%
G04 APERTURE END LIST*
D10*
X64490000Y-1524000D02*
X64490000Y-2624000D01*
D11*
X62972000Y-12875000D02*
X81172000Y-12875000D01*
X86872000Y-69875000D02*
X86872000Y-60975000D01*
D10*
X64490000Y-1524000D02*
X65490000Y-1824000D01*
X66990000Y-4624000D02*
X64490000Y-1524000D01*
D12*
X64093237Y-6084950D02*
X65236094Y-6084950D01*
X64664665Y-8084950D02*
X64664665Y-6084950D01*
X65902761Y-8084950D02*
X65902761Y-6084950D01*
X65902761Y-7037331D02*
X67045618Y-7037331D01*
X67045618Y-8084950D02*
X67045618Y-6084950D01*
X67997999Y-8084950D02*
X67997999Y-6084950D01*
X68855142Y-7989712D02*
X69140856Y-8084950D01*
X69140856Y-8084950D02*
X69617047Y-8084950D01*
X69617047Y-8084950D02*
X69807523Y-7989712D01*
X69807523Y-7989712D02*
X69902761Y-7894473D01*
X69902761Y-7894473D02*
X69997999Y-7703997D01*
X69997999Y-7703997D02*
X69997999Y-7513521D01*
X69997999Y-7513521D02*
X69902761Y-7323045D01*
X69902761Y-7323045D02*
X69807523Y-7227807D01*
X69807523Y-7227807D02*
X69617047Y-7132569D01*
X69617047Y-7132569D02*
X69236094Y-7037331D01*
X69236094Y-7037331D02*
X69045618Y-6942092D01*
X69045618Y-6942092D02*
X68950380Y-6846854D01*
X68950380Y-6846854D02*
X68855142Y-6656378D01*
X68855142Y-6656378D02*
X68855142Y-6465902D01*
X68855142Y-6465902D02*
X68950380Y-6275426D01*
X68950380Y-6275426D02*
X69045618Y-6180188D01*
X69045618Y-6180188D02*
X69236094Y-6084950D01*
X69236094Y-6084950D02*
X69712285Y-6084950D01*
X69712285Y-6084950D02*
X69997999Y-6180188D01*
X72283714Y-7989712D02*
X72569428Y-8084950D01*
X72569428Y-8084950D02*
X73045619Y-8084950D01*
X73045619Y-8084950D02*
X73236095Y-7989712D01*
X73236095Y-7989712D02*
X73331333Y-7894473D01*
X73331333Y-7894473D02*
X73426571Y-7703997D01*
X73426571Y-7703997D02*
X73426571Y-7513521D01*
X73426571Y-7513521D02*
X73331333Y-7323045D01*
X73331333Y-7323045D02*
X73236095Y-7227807D01*
X73236095Y-7227807D02*
X73045619Y-7132569D01*
X73045619Y-7132569D02*
X72664666Y-7037331D01*
X72664666Y-7037331D02*
X72474190Y-6942092D01*
X72474190Y-6942092D02*
X72378952Y-6846854D01*
X72378952Y-6846854D02*
X72283714Y-6656378D01*
X72283714Y-6656378D02*
X72283714Y-6465902D01*
X72283714Y-6465902D02*
X72378952Y-6275426D01*
X72378952Y-6275426D02*
X72474190Y-6180188D01*
X72474190Y-6180188D02*
X72664666Y-6084950D01*
X72664666Y-6084950D02*
X73140857Y-6084950D01*
X73140857Y-6084950D02*
X73426571Y-6180188D01*
X74283714Y-8084950D02*
X74283714Y-6084950D01*
X75236095Y-8084950D02*
X75236095Y-6084950D01*
X75236095Y-6084950D02*
X75712285Y-6084950D01*
X75712285Y-6084950D02*
X75998000Y-6180188D01*
X75998000Y-6180188D02*
X76188476Y-6370664D01*
X76188476Y-6370664D02*
X76283714Y-6561140D01*
X76283714Y-6561140D02*
X76378952Y-6942092D01*
X76378952Y-6942092D02*
X76378952Y-7227807D01*
X76378952Y-7227807D02*
X76283714Y-7608759D01*
X76283714Y-7608759D02*
X76188476Y-7799235D01*
X76188476Y-7799235D02*
X75998000Y-7989712D01*
X75998000Y-7989712D02*
X75712285Y-8084950D01*
X75712285Y-8084950D02*
X75236095Y-8084950D01*
X77236095Y-7037331D02*
X77902762Y-7037331D01*
X78188476Y-8084950D02*
X77236095Y-8084950D01*
X77236095Y-8084950D02*
X77236095Y-6084950D01*
X77236095Y-6084950D02*
X78188476Y-6084950D01*
X70426571Y-9304838D02*
X70426571Y-10923885D01*
X70426571Y-10923885D02*
X70521809Y-11114361D01*
X70521809Y-11114361D02*
X70617047Y-11209600D01*
X70617047Y-11209600D02*
X70807523Y-11304838D01*
X70807523Y-11304838D02*
X71188476Y-11304838D01*
X71188476Y-11304838D02*
X71378952Y-11209600D01*
X71378952Y-11209600D02*
X71474190Y-11114361D01*
X71474190Y-11114361D02*
X71569428Y-10923885D01*
X71569428Y-10923885D02*
X71569428Y-9304838D01*
X72521809Y-11304838D02*
X72521809Y-9304838D01*
X72521809Y-9304838D02*
X73283714Y-9304838D01*
X73283714Y-9304838D02*
X73474190Y-9400076D01*
X73474190Y-9400076D02*
X73569428Y-9495314D01*
X73569428Y-9495314D02*
X73664666Y-9685790D01*
X73664666Y-9685790D02*
X73664666Y-9971504D01*
X73664666Y-9971504D02*
X73569428Y-10161980D01*
X73569428Y-10161980D02*
X73474190Y-10257219D01*
X73474190Y-10257219D02*
X73283714Y-10352457D01*
X73283714Y-10352457D02*
X72521809Y-10352457D01*
D13*
X83578665Y-69252789D02*
X83578665Y-69586122D01*
X84102475Y-69586122D02*
X83102475Y-69586122D01*
X83102475Y-69586122D02*
X83102475Y-69109932D01*
X84102475Y-68728979D02*
X83102475Y-68728979D01*
X83102475Y-68728979D02*
X83102475Y-68348027D01*
X83102475Y-68348027D02*
X83150094Y-68252789D01*
X83150094Y-68252789D02*
X83197713Y-68205170D01*
X83197713Y-68205170D02*
X83292951Y-68157551D01*
X83292951Y-68157551D02*
X83435808Y-68157551D01*
X83435808Y-68157551D02*
X83531046Y-68205170D01*
X83531046Y-68205170D02*
X83578665Y-68252789D01*
X83578665Y-68252789D02*
X83626284Y-68348027D01*
X83626284Y-68348027D02*
X83626284Y-68728979D01*
X83150094Y-67205170D02*
X83102475Y-67300408D01*
X83102475Y-67300408D02*
X83102475Y-67443265D01*
X83102475Y-67443265D02*
X83150094Y-67586122D01*
X83150094Y-67586122D02*
X83245332Y-67681360D01*
X83245332Y-67681360D02*
X83340570Y-67728979D01*
X83340570Y-67728979D02*
X83531046Y-67776598D01*
X83531046Y-67776598D02*
X83673903Y-67776598D01*
X83673903Y-67776598D02*
X83864379Y-67728979D01*
X83864379Y-67728979D02*
X83959617Y-67681360D01*
X83959617Y-67681360D02*
X84054856Y-67586122D01*
X84054856Y-67586122D02*
X84102475Y-67443265D01*
X84102475Y-67443265D02*
X84102475Y-67348027D01*
X84102475Y-67348027D02*
X84054856Y-67205170D01*
X84054856Y-67205170D02*
X84007236Y-67157551D01*
X84007236Y-67157551D02*
X83673903Y-67157551D01*
X83673903Y-67157551D02*
X83673903Y-67348027D01*
X83816760Y-66776598D02*
X83816760Y-66300408D01*
X84102475Y-66871836D02*
X83102475Y-66538503D01*
X83102475Y-66538503D02*
X84102475Y-66205170D01*
X84102475Y-65109931D02*
X83102475Y-65109931D01*
X83102475Y-65109931D02*
X83816760Y-64776598D01*
X83816760Y-64776598D02*
X83102475Y-64443265D01*
X83102475Y-64443265D02*
X84102475Y-64443265D01*
X84054856Y-63586122D02*
X84102475Y-63681360D01*
X84102475Y-63681360D02*
X84102475Y-63871836D01*
X84102475Y-63871836D02*
X84054856Y-63967074D01*
X84054856Y-63967074D02*
X83959617Y-64014693D01*
X83959617Y-64014693D02*
X83578665Y-64014693D01*
X83578665Y-64014693D02*
X83483427Y-63967074D01*
X83483427Y-63967074D02*
X83435808Y-63871836D01*
X83435808Y-63871836D02*
X83435808Y-63681360D01*
X83435808Y-63681360D02*
X83483427Y-63586122D01*
X83483427Y-63586122D02*
X83578665Y-63538503D01*
X83578665Y-63538503D02*
X83673903Y-63538503D01*
X83673903Y-63538503D02*
X83769141Y-64014693D01*
X83435808Y-63205169D02*
X83435808Y-62681360D01*
X83435808Y-62681360D02*
X84102475Y-63205169D01*
X84102475Y-63205169D02*
X84102475Y-62681360D01*
X83435808Y-62395645D02*
X83435808Y-61871836D01*
X83435808Y-61871836D02*
X84102475Y-62395645D01*
X84102475Y-62395645D02*
X84102475Y-61871836D01*
X84007236Y-61490883D02*
X84054856Y-61443264D01*
X84054856Y-61443264D02*
X84102475Y-61490883D01*
X84102475Y-61490883D02*
X84054856Y-61538502D01*
X84054856Y-61538502D02*
X84007236Y-61490883D01*
X84007236Y-61490883D02*
X84102475Y-61490883D01*
X85188609Y-64586122D02*
X85188609Y-64252789D01*
X85712419Y-64109932D02*
X85712419Y-64586122D01*
X85712419Y-64586122D02*
X84712419Y-64586122D01*
X84712419Y-64586122D02*
X84712419Y-64109932D01*
X85712419Y-63252789D02*
X84712419Y-63252789D01*
X85664800Y-63252789D02*
X85712419Y-63348027D01*
X85712419Y-63348027D02*
X85712419Y-63538503D01*
X85712419Y-63538503D02*
X85664800Y-63633741D01*
X85664800Y-63633741D02*
X85617180Y-63681360D01*
X85617180Y-63681360D02*
X85521942Y-63728979D01*
X85521942Y-63728979D02*
X85236228Y-63728979D01*
X85236228Y-63728979D02*
X85140990Y-63681360D01*
X85140990Y-63681360D02*
X85093371Y-63633741D01*
X85093371Y-63633741D02*
X85045752Y-63538503D01*
X85045752Y-63538503D02*
X85045752Y-63348027D01*
X85045752Y-63348027D02*
X85093371Y-63252789D01*
X85045752Y-62348027D02*
X85855276Y-62348027D01*
X85855276Y-62348027D02*
X85950514Y-62395646D01*
X85950514Y-62395646D02*
X85998133Y-62443265D01*
X85998133Y-62443265D02*
X86045752Y-62538503D01*
X86045752Y-62538503D02*
X86045752Y-62681360D01*
X86045752Y-62681360D02*
X85998133Y-62776598D01*
X85664800Y-62348027D02*
X85712419Y-62443265D01*
X85712419Y-62443265D02*
X85712419Y-62633741D01*
X85712419Y-62633741D02*
X85664800Y-62728979D01*
X85664800Y-62728979D02*
X85617180Y-62776598D01*
X85617180Y-62776598D02*
X85521942Y-62824217D01*
X85521942Y-62824217D02*
X85236228Y-62824217D01*
X85236228Y-62824217D02*
X85140990Y-62776598D01*
X85140990Y-62776598D02*
X85093371Y-62728979D01*
X85093371Y-62728979D02*
X85045752Y-62633741D01*
X85045752Y-62633741D02*
X85045752Y-62443265D01*
X85045752Y-62443265D02*
X85093371Y-62348027D01*
X85664800Y-61490884D02*
X85712419Y-61586122D01*
X85712419Y-61586122D02*
X85712419Y-61776598D01*
X85712419Y-61776598D02*
X85664800Y-61871836D01*
X85664800Y-61871836D02*
X85569561Y-61919455D01*
X85569561Y-61919455D02*
X85188609Y-61919455D01*
X85188609Y-61919455D02*
X85093371Y-61871836D01*
X85093371Y-61871836D02*
X85045752Y-61776598D01*
X85045752Y-61776598D02*
X85045752Y-61586122D01*
X85045752Y-61586122D02*
X85093371Y-61490884D01*
X85093371Y-61490884D02*
X85188609Y-61443265D01*
X85188609Y-61443265D02*
X85283847Y-61443265D01*
X85283847Y-61443265D02*
X85379085Y-61919455D01*
X66091047Y-14023609D02*
X65757714Y-14023609D01*
X65757714Y-14547419D02*
X65757714Y-13547419D01*
X65757714Y-13547419D02*
X66233904Y-13547419D01*
X66614857Y-14547419D02*
X66614857Y-13547419D01*
X66614857Y-13547419D02*
X66995809Y-13547419D01*
X66995809Y-13547419D02*
X67091047Y-13595038D01*
X67091047Y-13595038D02*
X67138666Y-13642657D01*
X67138666Y-13642657D02*
X67186285Y-13737895D01*
X67186285Y-13737895D02*
X67186285Y-13880752D01*
X67186285Y-13880752D02*
X67138666Y-13975990D01*
X67138666Y-13975990D02*
X67091047Y-14023609D01*
X67091047Y-14023609D02*
X66995809Y-14071228D01*
X66995809Y-14071228D02*
X66614857Y-14071228D01*
X68138666Y-13595038D02*
X68043428Y-13547419D01*
X68043428Y-13547419D02*
X67900571Y-13547419D01*
X67900571Y-13547419D02*
X67757714Y-13595038D01*
X67757714Y-13595038D02*
X67662476Y-13690276D01*
X67662476Y-13690276D02*
X67614857Y-13785514D01*
X67614857Y-13785514D02*
X67567238Y-13975990D01*
X67567238Y-13975990D02*
X67567238Y-14118847D01*
X67567238Y-14118847D02*
X67614857Y-14309323D01*
X67614857Y-14309323D02*
X67662476Y-14404561D01*
X67662476Y-14404561D02*
X67757714Y-14499800D01*
X67757714Y-14499800D02*
X67900571Y-14547419D01*
X67900571Y-14547419D02*
X67995809Y-14547419D01*
X67995809Y-14547419D02*
X68138666Y-14499800D01*
X68138666Y-14499800D02*
X68186285Y-14452180D01*
X68186285Y-14452180D02*
X68186285Y-14118847D01*
X68186285Y-14118847D02*
X67995809Y-14118847D01*
X68567238Y-14261704D02*
X69043428Y-14261704D01*
X68472000Y-14547419D02*
X68805333Y-13547419D01*
X68805333Y-13547419D02*
X69138666Y-14547419D01*
X70233905Y-14547419D02*
X70233905Y-13547419D01*
X70233905Y-13547419D02*
X70567238Y-14261704D01*
X70567238Y-14261704D02*
X70900571Y-13547419D01*
X70900571Y-13547419D02*
X70900571Y-14547419D01*
X71757714Y-14499800D02*
X71662476Y-14547419D01*
X71662476Y-14547419D02*
X71472000Y-14547419D01*
X71472000Y-14547419D02*
X71376762Y-14499800D01*
X71376762Y-14499800D02*
X71329143Y-14404561D01*
X71329143Y-14404561D02*
X71329143Y-14023609D01*
X71329143Y-14023609D02*
X71376762Y-13928371D01*
X71376762Y-13928371D02*
X71472000Y-13880752D01*
X71472000Y-13880752D02*
X71662476Y-13880752D01*
X71662476Y-13880752D02*
X71757714Y-13928371D01*
X71757714Y-13928371D02*
X71805333Y-14023609D01*
X71805333Y-14023609D02*
X71805333Y-14118847D01*
X71805333Y-14118847D02*
X71329143Y-14214085D01*
X72138667Y-13880752D02*
X72662476Y-13880752D01*
X72662476Y-13880752D02*
X72138667Y-14547419D01*
X72138667Y-14547419D02*
X72662476Y-14547419D01*
X72948191Y-13880752D02*
X73472000Y-13880752D01*
X73472000Y-13880752D02*
X72948191Y-14547419D01*
X72948191Y-14547419D02*
X73472000Y-14547419D01*
X73852953Y-14452180D02*
X73900572Y-14499800D01*
X73900572Y-14499800D02*
X73852953Y-14547419D01*
X73852953Y-14547419D02*
X73805334Y-14499800D01*
X73805334Y-14499800D02*
X73852953Y-14452180D01*
X73852953Y-14452180D02*
X73852953Y-14547419D01*
X75091048Y-14023609D02*
X75424381Y-14023609D01*
X75567238Y-14547419D02*
X75091048Y-14547419D01*
X75091048Y-14547419D02*
X75091048Y-13547419D01*
X75091048Y-13547419D02*
X75567238Y-13547419D01*
X76424381Y-14547419D02*
X76424381Y-13547419D01*
X76424381Y-14499800D02*
X76329143Y-14547419D01*
X76329143Y-14547419D02*
X76138667Y-14547419D01*
X76138667Y-14547419D02*
X76043429Y-14499800D01*
X76043429Y-14499800D02*
X75995810Y-14452180D01*
X75995810Y-14452180D02*
X75948191Y-14356942D01*
X75948191Y-14356942D02*
X75948191Y-14071228D01*
X75948191Y-14071228D02*
X75995810Y-13975990D01*
X75995810Y-13975990D02*
X76043429Y-13928371D01*
X76043429Y-13928371D02*
X76138667Y-13880752D01*
X76138667Y-13880752D02*
X76329143Y-13880752D01*
X76329143Y-13880752D02*
X76424381Y-13928371D01*
X77329143Y-13880752D02*
X77329143Y-14690276D01*
X77329143Y-14690276D02*
X77281524Y-14785514D01*
X77281524Y-14785514D02*
X77233905Y-14833133D01*
X77233905Y-14833133D02*
X77138667Y-14880752D01*
X77138667Y-14880752D02*
X76995810Y-14880752D01*
X76995810Y-14880752D02*
X76900572Y-14833133D01*
X77329143Y-14499800D02*
X77233905Y-14547419D01*
X77233905Y-14547419D02*
X77043429Y-14547419D01*
X77043429Y-14547419D02*
X76948191Y-14499800D01*
X76948191Y-14499800D02*
X76900572Y-14452180D01*
X76900572Y-14452180D02*
X76852953Y-14356942D01*
X76852953Y-14356942D02*
X76852953Y-14071228D01*
X76852953Y-14071228D02*
X76900572Y-13975990D01*
X76900572Y-13975990D02*
X76948191Y-13928371D01*
X76948191Y-13928371D02*
X77043429Y-13880752D01*
X77043429Y-13880752D02*
X77233905Y-13880752D01*
X77233905Y-13880752D02*
X77329143Y-13928371D01*
X78186286Y-14499800D02*
X78091048Y-14547419D01*
X78091048Y-14547419D02*
X77900572Y-14547419D01*
X77900572Y-14547419D02*
X77805334Y-14499800D01*
X77805334Y-14499800D02*
X77757715Y-14404561D01*
X77757715Y-14404561D02*
X77757715Y-14023609D01*
X77757715Y-14023609D02*
X77805334Y-13928371D01*
X77805334Y-13928371D02*
X77900572Y-13880752D01*
X77900572Y-13880752D02*
X78091048Y-13880752D01*
X78091048Y-13880752D02*
X78186286Y-13928371D01*
X78186286Y-13928371D02*
X78233905Y-14023609D01*
X78233905Y-14023609D02*
X78233905Y-14118847D01*
X78233905Y-14118847D02*
X77757715Y-14214085D01*
X65837314Y-30939721D02*
X65503981Y-30939721D01*
X65503981Y-31463531D02*
X65503981Y-30463531D01*
X65503981Y-30463531D02*
X65980171Y-30463531D01*
X66361124Y-31463531D02*
X66361124Y-30463531D01*
X66361124Y-30463531D02*
X66742076Y-30463531D01*
X66742076Y-30463531D02*
X66837314Y-30511150D01*
X66837314Y-30511150D02*
X66884933Y-30558769D01*
X66884933Y-30558769D02*
X66932552Y-30654007D01*
X66932552Y-30654007D02*
X66932552Y-30796864D01*
X66932552Y-30796864D02*
X66884933Y-30892102D01*
X66884933Y-30892102D02*
X66837314Y-30939721D01*
X66837314Y-30939721D02*
X66742076Y-30987340D01*
X66742076Y-30987340D02*
X66361124Y-30987340D01*
X67884933Y-30511150D02*
X67789695Y-30463531D01*
X67789695Y-30463531D02*
X67646838Y-30463531D01*
X67646838Y-30463531D02*
X67503981Y-30511150D01*
X67503981Y-30511150D02*
X67408743Y-30606388D01*
X67408743Y-30606388D02*
X67361124Y-30701626D01*
X67361124Y-30701626D02*
X67313505Y-30892102D01*
X67313505Y-30892102D02*
X67313505Y-31034959D01*
X67313505Y-31034959D02*
X67361124Y-31225435D01*
X67361124Y-31225435D02*
X67408743Y-31320673D01*
X67408743Y-31320673D02*
X67503981Y-31415912D01*
X67503981Y-31415912D02*
X67646838Y-31463531D01*
X67646838Y-31463531D02*
X67742076Y-31463531D01*
X67742076Y-31463531D02*
X67884933Y-31415912D01*
X67884933Y-31415912D02*
X67932552Y-31368292D01*
X67932552Y-31368292D02*
X67932552Y-31034959D01*
X67932552Y-31034959D02*
X67742076Y-31034959D01*
X68313505Y-31177816D02*
X68789695Y-31177816D01*
X68218267Y-31463531D02*
X68551600Y-30463531D01*
X68551600Y-30463531D02*
X68884933Y-31463531D01*
X69980172Y-31463531D02*
X69980172Y-30463531D01*
X69980172Y-30463531D02*
X70313505Y-31177816D01*
X70313505Y-31177816D02*
X70646838Y-30463531D01*
X70646838Y-30463531D02*
X70646838Y-31463531D01*
X71503981Y-31415912D02*
X71408743Y-31463531D01*
X71408743Y-31463531D02*
X71218267Y-31463531D01*
X71218267Y-31463531D02*
X71123029Y-31415912D01*
X71123029Y-31415912D02*
X71075410Y-31320673D01*
X71075410Y-31320673D02*
X71075410Y-30939721D01*
X71075410Y-30939721D02*
X71123029Y-30844483D01*
X71123029Y-30844483D02*
X71218267Y-30796864D01*
X71218267Y-30796864D02*
X71408743Y-30796864D01*
X71408743Y-30796864D02*
X71503981Y-30844483D01*
X71503981Y-30844483D02*
X71551600Y-30939721D01*
X71551600Y-30939721D02*
X71551600Y-31034959D01*
X71551600Y-31034959D02*
X71075410Y-31130197D01*
X71884934Y-30796864D02*
X72408743Y-30796864D01*
X72408743Y-30796864D02*
X71884934Y-31463531D01*
X71884934Y-31463531D02*
X72408743Y-31463531D01*
X72694458Y-30796864D02*
X73218267Y-30796864D01*
X73218267Y-30796864D02*
X72694458Y-31463531D01*
X72694458Y-31463531D02*
X73218267Y-31463531D01*
X73599220Y-31368292D02*
X73646839Y-31415912D01*
X73646839Y-31415912D02*
X73599220Y-31463531D01*
X73599220Y-31463531D02*
X73551601Y-31415912D01*
X73551601Y-31415912D02*
X73599220Y-31368292D01*
X73599220Y-31368292D02*
X73599220Y-31463531D01*
X66551599Y-32978236D02*
X66503980Y-33025856D01*
X66503980Y-33025856D02*
X66361123Y-33073475D01*
X66361123Y-33073475D02*
X66265885Y-33073475D01*
X66265885Y-33073475D02*
X66123028Y-33025856D01*
X66123028Y-33025856D02*
X66027790Y-32930617D01*
X66027790Y-32930617D02*
X65980171Y-32835379D01*
X65980171Y-32835379D02*
X65932552Y-32644903D01*
X65932552Y-32644903D02*
X65932552Y-32502046D01*
X65932552Y-32502046D02*
X65980171Y-32311570D01*
X65980171Y-32311570D02*
X66027790Y-32216332D01*
X66027790Y-32216332D02*
X66123028Y-32121094D01*
X66123028Y-32121094D02*
X66265885Y-32073475D01*
X66265885Y-32073475D02*
X66361123Y-32073475D01*
X66361123Y-32073475D02*
X66503980Y-32121094D01*
X66503980Y-32121094D02*
X66551599Y-32168713D01*
X67123028Y-33073475D02*
X67027790Y-33025856D01*
X67027790Y-33025856D02*
X66980171Y-32978236D01*
X66980171Y-32978236D02*
X66932552Y-32882998D01*
X66932552Y-32882998D02*
X66932552Y-32597284D01*
X66932552Y-32597284D02*
X66980171Y-32502046D01*
X66980171Y-32502046D02*
X67027790Y-32454427D01*
X67027790Y-32454427D02*
X67123028Y-32406808D01*
X67123028Y-32406808D02*
X67265885Y-32406808D01*
X67265885Y-32406808D02*
X67361123Y-32454427D01*
X67361123Y-32454427D02*
X67408742Y-32502046D01*
X67408742Y-32502046D02*
X67456361Y-32597284D01*
X67456361Y-32597284D02*
X67456361Y-32882998D01*
X67456361Y-32882998D02*
X67408742Y-32978236D01*
X67408742Y-32978236D02*
X67361123Y-33025856D01*
X67361123Y-33025856D02*
X67265885Y-33073475D01*
X67265885Y-33073475D02*
X67123028Y-33073475D01*
X67884933Y-32406808D02*
X67884933Y-33073475D01*
X67884933Y-32502046D02*
X67932552Y-32454427D01*
X67932552Y-32454427D02*
X68027790Y-32406808D01*
X68027790Y-32406808D02*
X68170647Y-32406808D01*
X68170647Y-32406808D02*
X68265885Y-32454427D01*
X68265885Y-32454427D02*
X68313504Y-32549665D01*
X68313504Y-32549665D02*
X68313504Y-33073475D01*
X68789695Y-32406808D02*
X68789695Y-33073475D01*
X68789695Y-32502046D02*
X68837314Y-32454427D01*
X68837314Y-32454427D02*
X68932552Y-32406808D01*
X68932552Y-32406808D02*
X69075409Y-32406808D01*
X69075409Y-32406808D02*
X69170647Y-32454427D01*
X69170647Y-32454427D02*
X69218266Y-32549665D01*
X69218266Y-32549665D02*
X69218266Y-33073475D01*
X69694457Y-32978236D02*
X69742076Y-33025856D01*
X69742076Y-33025856D02*
X69694457Y-33073475D01*
X69694457Y-33073475D02*
X69646838Y-33025856D01*
X69646838Y-33025856D02*
X69694457Y-32978236D01*
X69694457Y-32978236D02*
X69694457Y-33073475D01*
X71218266Y-32073475D02*
X71218266Y-32787760D01*
X71218266Y-32787760D02*
X71170647Y-32930617D01*
X71170647Y-32930617D02*
X71075409Y-33025856D01*
X71075409Y-33025856D02*
X70932552Y-33073475D01*
X70932552Y-33073475D02*
X70837314Y-33073475D01*
X71646838Y-32168713D02*
X71694457Y-32121094D01*
X71694457Y-32121094D02*
X71789695Y-32073475D01*
X71789695Y-32073475D02*
X72027790Y-32073475D01*
X72027790Y-32073475D02*
X72123028Y-32121094D01*
X72123028Y-32121094D02*
X72170647Y-32168713D01*
X72170647Y-32168713D02*
X72218266Y-32263951D01*
X72218266Y-32263951D02*
X72218266Y-32359189D01*
X72218266Y-32359189D02*
X72170647Y-32502046D01*
X72170647Y-32502046D02*
X71599219Y-33073475D01*
X71599219Y-33073475D02*
X72218266Y-33073475D01*
X73170647Y-33073475D02*
X72599219Y-33073475D01*
X72884933Y-33073475D02*
X72884933Y-32073475D01*
X72884933Y-32073475D02*
X72789695Y-32216332D01*
X72789695Y-32216332D02*
X72694457Y-32311570D01*
X72694457Y-32311570D02*
X72599219Y-32359189D01*
X69218267Y-33683419D02*
X69551600Y-34683419D01*
X69551600Y-34683419D02*
X69884933Y-33683419D01*
X76147314Y-30951721D02*
X75813981Y-30951721D01*
X75813981Y-31475531D02*
X75813981Y-30475531D01*
X75813981Y-30475531D02*
X76290171Y-30475531D01*
X76671124Y-31475531D02*
X76671124Y-30475531D01*
X76671124Y-30475531D02*
X77052076Y-30475531D01*
X77052076Y-30475531D02*
X77147314Y-30523150D01*
X77147314Y-30523150D02*
X77194933Y-30570769D01*
X77194933Y-30570769D02*
X77242552Y-30666007D01*
X77242552Y-30666007D02*
X77242552Y-30808864D01*
X77242552Y-30808864D02*
X77194933Y-30904102D01*
X77194933Y-30904102D02*
X77147314Y-30951721D01*
X77147314Y-30951721D02*
X77052076Y-30999340D01*
X77052076Y-30999340D02*
X76671124Y-30999340D01*
X78194933Y-30523150D02*
X78099695Y-30475531D01*
X78099695Y-30475531D02*
X77956838Y-30475531D01*
X77956838Y-30475531D02*
X77813981Y-30523150D01*
X77813981Y-30523150D02*
X77718743Y-30618388D01*
X77718743Y-30618388D02*
X77671124Y-30713626D01*
X77671124Y-30713626D02*
X77623505Y-30904102D01*
X77623505Y-30904102D02*
X77623505Y-31046959D01*
X77623505Y-31046959D02*
X77671124Y-31237435D01*
X77671124Y-31237435D02*
X77718743Y-31332673D01*
X77718743Y-31332673D02*
X77813981Y-31427912D01*
X77813981Y-31427912D02*
X77956838Y-31475531D01*
X77956838Y-31475531D02*
X78052076Y-31475531D01*
X78052076Y-31475531D02*
X78194933Y-31427912D01*
X78194933Y-31427912D02*
X78242552Y-31380292D01*
X78242552Y-31380292D02*
X78242552Y-31046959D01*
X78242552Y-31046959D02*
X78052076Y-31046959D01*
X78623505Y-31189816D02*
X79099695Y-31189816D01*
X78528267Y-31475531D02*
X78861600Y-30475531D01*
X78861600Y-30475531D02*
X79194933Y-31475531D01*
X80290172Y-31475531D02*
X80290172Y-30475531D01*
X80290172Y-30475531D02*
X80623505Y-31189816D01*
X80623505Y-31189816D02*
X80956838Y-30475531D01*
X80956838Y-30475531D02*
X80956838Y-31475531D01*
X81813981Y-31427912D02*
X81718743Y-31475531D01*
X81718743Y-31475531D02*
X81528267Y-31475531D01*
X81528267Y-31475531D02*
X81433029Y-31427912D01*
X81433029Y-31427912D02*
X81385410Y-31332673D01*
X81385410Y-31332673D02*
X81385410Y-30951721D01*
X81385410Y-30951721D02*
X81433029Y-30856483D01*
X81433029Y-30856483D02*
X81528267Y-30808864D01*
X81528267Y-30808864D02*
X81718743Y-30808864D01*
X81718743Y-30808864D02*
X81813981Y-30856483D01*
X81813981Y-30856483D02*
X81861600Y-30951721D01*
X81861600Y-30951721D02*
X81861600Y-31046959D01*
X81861600Y-31046959D02*
X81385410Y-31142197D01*
X82194934Y-30808864D02*
X82718743Y-30808864D01*
X82718743Y-30808864D02*
X82194934Y-31475531D01*
X82194934Y-31475531D02*
X82718743Y-31475531D01*
X83004458Y-30808864D02*
X83528267Y-30808864D01*
X83528267Y-30808864D02*
X83004458Y-31475531D01*
X83004458Y-31475531D02*
X83528267Y-31475531D01*
X83909220Y-31380292D02*
X83956839Y-31427912D01*
X83956839Y-31427912D02*
X83909220Y-31475531D01*
X83909220Y-31475531D02*
X83861601Y-31427912D01*
X83861601Y-31427912D02*
X83909220Y-31380292D01*
X83909220Y-31380292D02*
X83909220Y-31475531D01*
X76861599Y-32990236D02*
X76813980Y-33037856D01*
X76813980Y-33037856D02*
X76671123Y-33085475D01*
X76671123Y-33085475D02*
X76575885Y-33085475D01*
X76575885Y-33085475D02*
X76433028Y-33037856D01*
X76433028Y-33037856D02*
X76337790Y-32942617D01*
X76337790Y-32942617D02*
X76290171Y-32847379D01*
X76290171Y-32847379D02*
X76242552Y-32656903D01*
X76242552Y-32656903D02*
X76242552Y-32514046D01*
X76242552Y-32514046D02*
X76290171Y-32323570D01*
X76290171Y-32323570D02*
X76337790Y-32228332D01*
X76337790Y-32228332D02*
X76433028Y-32133094D01*
X76433028Y-32133094D02*
X76575885Y-32085475D01*
X76575885Y-32085475D02*
X76671123Y-32085475D01*
X76671123Y-32085475D02*
X76813980Y-32133094D01*
X76813980Y-32133094D02*
X76861599Y-32180713D01*
X77433028Y-33085475D02*
X77337790Y-33037856D01*
X77337790Y-33037856D02*
X77290171Y-32990236D01*
X77290171Y-32990236D02*
X77242552Y-32894998D01*
X77242552Y-32894998D02*
X77242552Y-32609284D01*
X77242552Y-32609284D02*
X77290171Y-32514046D01*
X77290171Y-32514046D02*
X77337790Y-32466427D01*
X77337790Y-32466427D02*
X77433028Y-32418808D01*
X77433028Y-32418808D02*
X77575885Y-32418808D01*
X77575885Y-32418808D02*
X77671123Y-32466427D01*
X77671123Y-32466427D02*
X77718742Y-32514046D01*
X77718742Y-32514046D02*
X77766361Y-32609284D01*
X77766361Y-32609284D02*
X77766361Y-32894998D01*
X77766361Y-32894998D02*
X77718742Y-32990236D01*
X77718742Y-32990236D02*
X77671123Y-33037856D01*
X77671123Y-33037856D02*
X77575885Y-33085475D01*
X77575885Y-33085475D02*
X77433028Y-33085475D01*
X78194933Y-32418808D02*
X78194933Y-33085475D01*
X78194933Y-32514046D02*
X78242552Y-32466427D01*
X78242552Y-32466427D02*
X78337790Y-32418808D01*
X78337790Y-32418808D02*
X78480647Y-32418808D01*
X78480647Y-32418808D02*
X78575885Y-32466427D01*
X78575885Y-32466427D02*
X78623504Y-32561665D01*
X78623504Y-32561665D02*
X78623504Y-33085475D01*
X79099695Y-32418808D02*
X79099695Y-33085475D01*
X79099695Y-32514046D02*
X79147314Y-32466427D01*
X79147314Y-32466427D02*
X79242552Y-32418808D01*
X79242552Y-32418808D02*
X79385409Y-32418808D01*
X79385409Y-32418808D02*
X79480647Y-32466427D01*
X79480647Y-32466427D02*
X79528266Y-32561665D01*
X79528266Y-32561665D02*
X79528266Y-33085475D01*
X80004457Y-32990236D02*
X80052076Y-33037856D01*
X80052076Y-33037856D02*
X80004457Y-33085475D01*
X80004457Y-33085475D02*
X79956838Y-33037856D01*
X79956838Y-33037856D02*
X80004457Y-32990236D01*
X80004457Y-32990236D02*
X80004457Y-33085475D01*
X81528266Y-32085475D02*
X81528266Y-32799760D01*
X81528266Y-32799760D02*
X81480647Y-32942617D01*
X81480647Y-32942617D02*
X81385409Y-33037856D01*
X81385409Y-33037856D02*
X81242552Y-33085475D01*
X81242552Y-33085475D02*
X81147314Y-33085475D01*
X81956838Y-32180713D02*
X82004457Y-32133094D01*
X82004457Y-32133094D02*
X82099695Y-32085475D01*
X82099695Y-32085475D02*
X82337790Y-32085475D01*
X82337790Y-32085475D02*
X82433028Y-32133094D01*
X82433028Y-32133094D02*
X82480647Y-32180713D01*
X82480647Y-32180713D02*
X82528266Y-32275951D01*
X82528266Y-32275951D02*
X82528266Y-32371189D01*
X82528266Y-32371189D02*
X82480647Y-32514046D01*
X82480647Y-32514046D02*
X81909219Y-33085475D01*
X81909219Y-33085475D02*
X82528266Y-33085475D01*
X82861600Y-32085475D02*
X83480647Y-32085475D01*
X83480647Y-32085475D02*
X83147314Y-32466427D01*
X83147314Y-32466427D02*
X83290171Y-32466427D01*
X83290171Y-32466427D02*
X83385409Y-32514046D01*
X83385409Y-32514046D02*
X83433028Y-32561665D01*
X83433028Y-32561665D02*
X83480647Y-32656903D01*
X83480647Y-32656903D02*
X83480647Y-32894998D01*
X83480647Y-32894998D02*
X83433028Y-32990236D01*
X83433028Y-32990236D02*
X83385409Y-33037856D01*
X83385409Y-33037856D02*
X83290171Y-33085475D01*
X83290171Y-33085475D02*
X83004457Y-33085475D01*
X83004457Y-33085475D02*
X82909219Y-33037856D01*
X82909219Y-33037856D02*
X82861600Y-32990236D01*
X79528267Y-33695419D02*
X79861600Y-34695419D01*
X79861600Y-34695419D02*
X80194933Y-33695419D01*
D12*
X68251903Y-4373600D02*
X68537617Y-4468838D01*
X68537617Y-4468838D02*
X69013808Y-4468838D01*
X69013808Y-4468838D02*
X69204284Y-4373600D01*
X69204284Y-4373600D02*
X69299522Y-4278361D01*
X69299522Y-4278361D02*
X69394760Y-4087885D01*
X69394760Y-4087885D02*
X69394760Y-3897409D01*
X69394760Y-3897409D02*
X69299522Y-3706933D01*
X69299522Y-3706933D02*
X69204284Y-3611695D01*
X69204284Y-3611695D02*
X69013808Y-3516457D01*
X69013808Y-3516457D02*
X68632855Y-3421219D01*
X68632855Y-3421219D02*
X68442379Y-3325980D01*
X68442379Y-3325980D02*
X68347141Y-3230742D01*
X68347141Y-3230742D02*
X68251903Y-3040266D01*
X68251903Y-3040266D02*
X68251903Y-2849790D01*
X68251903Y-2849790D02*
X68347141Y-2659314D01*
X68347141Y-2659314D02*
X68442379Y-2564076D01*
X68442379Y-2564076D02*
X68632855Y-2468838D01*
X68632855Y-2468838D02*
X69109046Y-2468838D01*
X69109046Y-2468838D02*
X69394760Y-2564076D01*
X70537617Y-4468838D02*
X70347141Y-4373600D01*
X70347141Y-4373600D02*
X70251903Y-4278361D01*
X70251903Y-4278361D02*
X70156665Y-4087885D01*
X70156665Y-4087885D02*
X70156665Y-3516457D01*
X70156665Y-3516457D02*
X70251903Y-3325980D01*
X70251903Y-3325980D02*
X70347141Y-3230742D01*
X70347141Y-3230742D02*
X70537617Y-3135504D01*
X70537617Y-3135504D02*
X70823332Y-3135504D01*
X70823332Y-3135504D02*
X71013808Y-3230742D01*
X71013808Y-3230742D02*
X71109046Y-3325980D01*
X71109046Y-3325980D02*
X71204284Y-3516457D01*
X71204284Y-3516457D02*
X71204284Y-4087885D01*
X71204284Y-4087885D02*
X71109046Y-4278361D01*
X71109046Y-4278361D02*
X71013808Y-4373600D01*
X71013808Y-4373600D02*
X70823332Y-4468838D01*
X70823332Y-4468838D02*
X70537617Y-4468838D01*
X73204284Y-4278361D02*
X73109046Y-4373600D01*
X73109046Y-4373600D02*
X72823332Y-4468838D01*
X72823332Y-4468838D02*
X72632856Y-4468838D01*
X72632856Y-4468838D02*
X72347141Y-4373600D01*
X72347141Y-4373600D02*
X72156665Y-4183123D01*
X72156665Y-4183123D02*
X72061427Y-3992647D01*
X72061427Y-3992647D02*
X71966189Y-3611695D01*
X71966189Y-3611695D02*
X71966189Y-3325980D01*
X71966189Y-3325980D02*
X72061427Y-2945028D01*
X72061427Y-2945028D02*
X72156665Y-2754552D01*
X72156665Y-2754552D02*
X72347141Y-2564076D01*
X72347141Y-2564076D02*
X72632856Y-2468838D01*
X72632856Y-2468838D02*
X72823332Y-2468838D01*
X72823332Y-2468838D02*
X73109046Y-2564076D01*
X73109046Y-2564076D02*
X73204284Y-2659314D01*
X75299523Y-2468838D02*
X76442380Y-2468838D01*
X75870951Y-4468838D02*
X75870951Y-2468838D01*
X77109047Y-4468838D02*
X77109047Y-2468838D01*
X77966190Y-4468838D02*
X77966190Y-3421219D01*
X77966190Y-3421219D02*
X77870952Y-3230742D01*
X77870952Y-3230742D02*
X77680476Y-3135504D01*
X77680476Y-3135504D02*
X77394761Y-3135504D01*
X77394761Y-3135504D02*
X77204285Y-3230742D01*
X77204285Y-3230742D02*
X77109047Y-3325980D01*
X78918571Y-4468838D02*
X78918571Y-3135504D01*
X78918571Y-2468838D02*
X78823333Y-2564076D01*
X78823333Y-2564076D02*
X78918571Y-2659314D01*
X78918571Y-2659314D02*
X79013809Y-2564076D01*
X79013809Y-2564076D02*
X78918571Y-2468838D01*
X78918571Y-2468838D02*
X78918571Y-2659314D01*
X79775714Y-4373600D02*
X79966190Y-4468838D01*
X79966190Y-4468838D02*
X80347142Y-4468838D01*
X80347142Y-4468838D02*
X80537619Y-4373600D01*
X80537619Y-4373600D02*
X80632857Y-4183123D01*
X80632857Y-4183123D02*
X80632857Y-4087885D01*
X80632857Y-4087885D02*
X80537619Y-3897409D01*
X80537619Y-3897409D02*
X80347142Y-3802171D01*
X80347142Y-3802171D02*
X80061428Y-3802171D01*
X80061428Y-3802171D02*
X79870952Y-3706933D01*
X79870952Y-3706933D02*
X79775714Y-3516457D01*
X79775714Y-3516457D02*
X79775714Y-3421219D01*
X79775714Y-3421219D02*
X79870952Y-3230742D01*
X79870952Y-3230742D02*
X80061428Y-3135504D01*
X80061428Y-3135504D02*
X80347142Y-3135504D01*
X80347142Y-3135504D02*
X80537619Y-3230742D01*
X82823334Y-2468838D02*
X83299524Y-4468838D01*
X83299524Y-4468838D02*
X83680477Y-3040266D01*
X83680477Y-3040266D02*
X84061429Y-4468838D01*
X84061429Y-4468838D02*
X84537620Y-2468838D01*
X86156667Y-4468838D02*
X86156667Y-3421219D01*
X86156667Y-3421219D02*
X86061429Y-3230742D01*
X86061429Y-3230742D02*
X85870953Y-3135504D01*
X85870953Y-3135504D02*
X85490000Y-3135504D01*
X85490000Y-3135504D02*
X85299524Y-3230742D01*
X86156667Y-4373600D02*
X85966191Y-4468838D01*
X85966191Y-4468838D02*
X85490000Y-4468838D01*
X85490000Y-4468838D02*
X85299524Y-4373600D01*
X85299524Y-4373600D02*
X85204286Y-4183123D01*
X85204286Y-4183123D02*
X85204286Y-3992647D01*
X85204286Y-3992647D02*
X85299524Y-3802171D01*
X85299524Y-3802171D02*
X85490000Y-3706933D01*
X85490000Y-3706933D02*
X85966191Y-3706933D01*
X85966191Y-3706933D02*
X86156667Y-3611695D01*
X86918572Y-3135504D02*
X87394762Y-4468838D01*
X87870953Y-3135504D02*
X87394762Y-4468838D01*
X87394762Y-4468838D02*
X87204286Y-4945028D01*
X87204286Y-4945028D02*
X87109048Y-5040266D01*
X87109048Y-5040266D02*
X86918572Y-5135504D01*
X88632858Y-4278361D02*
X88728096Y-4373600D01*
X88728096Y-4373600D02*
X88632858Y-4468838D01*
X88632858Y-4468838D02*
X88537620Y-4373600D01*
X88537620Y-4373600D02*
X88632858Y-4278361D01*
X88632858Y-4278361D02*
X88632858Y-4468838D01*
X88632858Y-3706933D02*
X88537620Y-2564076D01*
X88537620Y-2564076D02*
X88632858Y-2468838D01*
X88632858Y-2468838D02*
X88728096Y-2564076D01*
X88728096Y-2564076D02*
X88632858Y-3706933D01*
X88632858Y-3706933D02*
X88632858Y-2468838D01*
D14*
X53746079Y-52238369D02*
X53707984Y-52200273D01*
X53707984Y-52200273D02*
X53669889Y-52124083D01*
X53669889Y-52124083D02*
X53669889Y-51933607D01*
X53669889Y-51933607D02*
X53707984Y-51857416D01*
X53707984Y-51857416D02*
X53746079Y-51819321D01*
X53746079Y-51819321D02*
X53822270Y-51781226D01*
X53822270Y-51781226D02*
X53898460Y-51781226D01*
X53898460Y-51781226D02*
X54012746Y-51819321D01*
X54012746Y-51819321D02*
X54469889Y-52276464D01*
X54469889Y-52276464D02*
X54469889Y-51781226D01*
X53669889Y-51057416D02*
X53669889Y-51438368D01*
X53669889Y-51438368D02*
X54050841Y-51476464D01*
X54050841Y-51476464D02*
X54012746Y-51438368D01*
X54012746Y-51438368D02*
X53974651Y-51362178D01*
X53974651Y-51362178D02*
X53974651Y-51171702D01*
X53974651Y-51171702D02*
X54012746Y-51095511D01*
X54012746Y-51095511D02*
X54050841Y-51057416D01*
X54050841Y-51057416D02*
X54127032Y-51019321D01*
X54127032Y-51019321D02*
X54317508Y-51019321D01*
X54317508Y-51019321D02*
X54393698Y-51057416D01*
X54393698Y-51057416D02*
X54431794Y-51095511D01*
X54431794Y-51095511D02*
X54469889Y-51171702D01*
X54469889Y-51171702D02*
X54469889Y-51362178D01*
X54469889Y-51362178D02*
X54431794Y-51438368D01*
X54431794Y-51438368D02*
X54393698Y-51476464D01*
X54370389Y-18186626D02*
X54370389Y-18643769D01*
X54370389Y-18415197D02*
X53570389Y-18415197D01*
X53570389Y-18415197D02*
X53684674Y-18491388D01*
X53684674Y-18491388D02*
X53760865Y-18567578D01*
X53760865Y-18567578D02*
X53798960Y-18643769D01*
X53837055Y-17500911D02*
X54370389Y-17500911D01*
X53532294Y-17691387D02*
X54103722Y-17881864D01*
X54103722Y-17881864D02*
X54103722Y-17386625D01*
D15*
X74194266Y-16572619D02*
X74194266Y-17286904D01*
X74194266Y-17286904D02*
X74146647Y-17429761D01*
X74146647Y-17429761D02*
X74051409Y-17525000D01*
X74051409Y-17525000D02*
X73908552Y-17572619D01*
X73908552Y-17572619D02*
X73813314Y-17572619D01*
X75194266Y-17572619D02*
X74622838Y-17572619D01*
X74908552Y-17572619D02*
X74908552Y-16572619D01*
X74908552Y-16572619D02*
X74813314Y-16715476D01*
X74813314Y-16715476D02*
X74718076Y-16810714D01*
X74718076Y-16810714D02*
X74622838Y-16858333D01*
X79001276Y-67247019D02*
X79001276Y-67961304D01*
X79001276Y-67961304D02*
X78953657Y-68104161D01*
X78953657Y-68104161D02*
X78858419Y-68199400D01*
X78858419Y-68199400D02*
X78715562Y-68247019D01*
X78715562Y-68247019D02*
X78620324Y-68247019D01*
X80001276Y-68247019D02*
X79429848Y-68247019D01*
X79715562Y-68247019D02*
X79715562Y-67247019D01*
X79715562Y-67247019D02*
X79620324Y-67389876D01*
X79620324Y-67389876D02*
X79525086Y-67485114D01*
X79525086Y-67485114D02*
X79429848Y-67532733D01*
X80620324Y-67247019D02*
X80715562Y-67247019D01*
X80715562Y-67247019D02*
X80810800Y-67294638D01*
X80810800Y-67294638D02*
X80858419Y-67342257D01*
X80858419Y-67342257D02*
X80906038Y-67437495D01*
X80906038Y-67437495D02*
X80953657Y-67627971D01*
X80953657Y-67627971D02*
X80953657Y-67866066D01*
X80953657Y-67866066D02*
X80906038Y-68056542D01*
X80906038Y-68056542D02*
X80858419Y-68151780D01*
X80858419Y-68151780D02*
X80810800Y-68199400D01*
X80810800Y-68199400D02*
X80715562Y-68247019D01*
X80715562Y-68247019D02*
X80620324Y-68247019D01*
X80620324Y-68247019D02*
X80525086Y-68199400D01*
X80525086Y-68199400D02*
X80477467Y-68151780D01*
X80477467Y-68151780D02*
X80429848Y-68056542D01*
X80429848Y-68056542D02*
X80382229Y-67866066D01*
X80382229Y-67866066D02*
X80382229Y-67627971D01*
X80382229Y-67627971D02*
X80429848Y-67437495D01*
X80429848Y-67437495D02*
X80477467Y-67342257D01*
X80477467Y-67342257D02*
X80525086Y-67294638D01*
X80525086Y-67294638D02*
X80620324Y-67247019D01*
X67031466Y-16623419D02*
X67031466Y-17337704D01*
X67031466Y-17337704D02*
X66983847Y-17480561D01*
X66983847Y-17480561D02*
X66888609Y-17575800D01*
X66888609Y-17575800D02*
X66745752Y-17623419D01*
X66745752Y-17623419D02*
X66650514Y-17623419D01*
X67460038Y-16718657D02*
X67507657Y-16671038D01*
X67507657Y-16671038D02*
X67602895Y-16623419D01*
X67602895Y-16623419D02*
X67840990Y-16623419D01*
X67840990Y-16623419D02*
X67936228Y-16671038D01*
X67936228Y-16671038D02*
X67983847Y-16718657D01*
X67983847Y-16718657D02*
X68031466Y-16813895D01*
X68031466Y-16813895D02*
X68031466Y-16909133D01*
X68031466Y-16909133D02*
X67983847Y-17051990D01*
X67983847Y-17051990D02*
X67412419Y-17623419D01*
X67412419Y-17623419D02*
X68031466Y-17623419D01*
X81331666Y-16648819D02*
X81331666Y-17363104D01*
X81331666Y-17363104D02*
X81284047Y-17505961D01*
X81284047Y-17505961D02*
X81188809Y-17601200D01*
X81188809Y-17601200D02*
X81045952Y-17648819D01*
X81045952Y-17648819D02*
X80950714Y-17648819D01*
X81712619Y-16648819D02*
X82331666Y-16648819D01*
X82331666Y-16648819D02*
X81998333Y-17029771D01*
X81998333Y-17029771D02*
X82141190Y-17029771D01*
X82141190Y-17029771D02*
X82236428Y-17077390D01*
X82236428Y-17077390D02*
X82284047Y-17125009D01*
X82284047Y-17125009D02*
X82331666Y-17220247D01*
X82331666Y-17220247D02*
X82331666Y-17458342D01*
X82331666Y-17458342D02*
X82284047Y-17553580D01*
X82284047Y-17553580D02*
X82236428Y-17601200D01*
X82236428Y-17601200D02*
X82141190Y-17648819D01*
X82141190Y-17648819D02*
X81855476Y-17648819D01*
X81855476Y-17648819D02*
X81760238Y-17601200D01*
X81760238Y-17601200D02*
X81712619Y-17553580D01*
X92087467Y-61869526D02*
X92087467Y-62776669D01*
X92087467Y-62776669D02*
X92026990Y-62958097D01*
X92026990Y-62958097D02*
X91906038Y-63079050D01*
X91906038Y-63079050D02*
X91724609Y-63139526D01*
X91724609Y-63139526D02*
X91603657Y-63139526D01*
X93236514Y-61869526D02*
X92994609Y-61869526D01*
X92994609Y-61869526D02*
X92873657Y-61930002D01*
X92873657Y-61930002D02*
X92813181Y-61990478D01*
X92813181Y-61990478D02*
X92692228Y-62171907D01*
X92692228Y-62171907D02*
X92631752Y-62413811D01*
X92631752Y-62413811D02*
X92631752Y-62897621D01*
X92631752Y-62897621D02*
X92692228Y-63018573D01*
X92692228Y-63018573D02*
X92752705Y-63079050D01*
X92752705Y-63079050D02*
X92873657Y-63139526D01*
X92873657Y-63139526D02*
X93115562Y-63139526D01*
X93115562Y-63139526D02*
X93236514Y-63079050D01*
X93236514Y-63079050D02*
X93296990Y-63018573D01*
X93296990Y-63018573D02*
X93357467Y-62897621D01*
X93357467Y-62897621D02*
X93357467Y-62595240D01*
X93357467Y-62595240D02*
X93296990Y-62474288D01*
X93296990Y-62474288D02*
X93236514Y-62413811D01*
X93236514Y-62413811D02*
X93115562Y-62353335D01*
X93115562Y-62353335D02*
X92873657Y-62353335D01*
X92873657Y-62353335D02*
X92752705Y-62413811D01*
X92752705Y-62413811D02*
X92692228Y-62474288D01*
X92692228Y-62474288D02*
X92631752Y-62595240D01*
D14*
X89737810Y-50700673D02*
X89737810Y-50243530D01*
X89737810Y-50472102D02*
X90537810Y-50472102D01*
X90537810Y-50472102D02*
X90423525Y-50395911D01*
X90423525Y-50395911D02*
X90347334Y-50319721D01*
X90347334Y-50319721D02*
X90309239Y-50243530D01*
X90271144Y-51386388D02*
X89737810Y-51386388D01*
X90575906Y-51195912D02*
X90004477Y-51005435D01*
X90004477Y-51005435D02*
X90004477Y-51500674D01*
X94878310Y-51898973D02*
X94878310Y-51441830D01*
X94878310Y-51670402D02*
X95678310Y-51670402D01*
X95678310Y-51670402D02*
X95564025Y-51594211D01*
X95564025Y-51594211D02*
X95487834Y-51518021D01*
X95487834Y-51518021D02*
X95449739Y-51441830D01*
X94837910Y-16100773D02*
X94837910Y-15643630D01*
X94837910Y-15872202D02*
X95637910Y-15872202D01*
X95637910Y-15872202D02*
X95523625Y-15796011D01*
X95523625Y-15796011D02*
X95447434Y-15719821D01*
X95447434Y-15719821D02*
X95409339Y-15643630D01*
X95637910Y-16367440D02*
X95637910Y-16862678D01*
X95637910Y-16862678D02*
X95333148Y-16596012D01*
X95333148Y-16596012D02*
X95333148Y-16710297D01*
X95333148Y-16710297D02*
X95295053Y-16786488D01*
X95295053Y-16786488D02*
X95256958Y-16824583D01*
X95256958Y-16824583D02*
X95180767Y-16862678D01*
X95180767Y-16862678D02*
X94990291Y-16862678D01*
X94990291Y-16862678D02*
X94914101Y-16824583D01*
X94914101Y-16824583D02*
X94876006Y-16786488D01*
X94876006Y-16786488D02*
X94837910Y-16710297D01*
X94837910Y-16710297D02*
X94837910Y-16481726D01*
X94837910Y-16481726D02*
X94876006Y-16405535D01*
X94876006Y-16405535D02*
X94914101Y-16367440D01*
X90362120Y-16648930D02*
X90400215Y-16687026D01*
X90400215Y-16687026D02*
X90438310Y-16763216D01*
X90438310Y-16763216D02*
X90438310Y-16953692D01*
X90438310Y-16953692D02*
X90400215Y-17029883D01*
X90400215Y-17029883D02*
X90362120Y-17067978D01*
X90362120Y-17067978D02*
X90285929Y-17106073D01*
X90285929Y-17106073D02*
X90209739Y-17106073D01*
X90209739Y-17106073D02*
X90095453Y-17067978D01*
X90095453Y-17067978D02*
X89638310Y-16610835D01*
X89638310Y-16610835D02*
X89638310Y-17106073D01*
X90438310Y-17829883D02*
X90438310Y-17448931D01*
X90438310Y-17448931D02*
X90057358Y-17410835D01*
X90057358Y-17410835D02*
X90095453Y-17448931D01*
X90095453Y-17448931D02*
X90133548Y-17525121D01*
X90133548Y-17525121D02*
X90133548Y-17715597D01*
X90133548Y-17715597D02*
X90095453Y-17791788D01*
X90095453Y-17791788D02*
X90057358Y-17829883D01*
X90057358Y-17829883D02*
X89981167Y-17867978D01*
X89981167Y-17867978D02*
X89790691Y-17867978D01*
X89790691Y-17867978D02*
X89714501Y-17829883D01*
X89714501Y-17829883D02*
X89676406Y-17791788D01*
X89676406Y-17791788D02*
X89638310Y-17715597D01*
X89638310Y-17715597D02*
X89638310Y-17525121D01*
X89638310Y-17525121D02*
X89676406Y-17448931D01*
X89676406Y-17448931D02*
X89714501Y-17410835D01*
D15*
X8296666Y-23016822D02*
X8296666Y-23731107D01*
X8296666Y-23731107D02*
X8249047Y-23873964D01*
X8249047Y-23873964D02*
X8153809Y-23969203D01*
X8153809Y-23969203D02*
X8010952Y-24016822D01*
X8010952Y-24016822D02*
X7915714Y-24016822D01*
X8677619Y-23016822D02*
X9296666Y-23016822D01*
X9296666Y-23016822D02*
X8963333Y-23397774D01*
X8963333Y-23397774D02*
X9106190Y-23397774D01*
X9106190Y-23397774D02*
X9201428Y-23445393D01*
X9201428Y-23445393D02*
X9249047Y-23493012D01*
X9249047Y-23493012D02*
X9296666Y-23588250D01*
X9296666Y-23588250D02*
X9296666Y-23826345D01*
X9296666Y-23826345D02*
X9249047Y-23921583D01*
X9249047Y-23921583D02*
X9201428Y-23969203D01*
X9201428Y-23969203D02*
X9106190Y-24016822D01*
X9106190Y-24016822D02*
X8820476Y-24016822D01*
X8820476Y-24016822D02*
X8725238Y-23969203D01*
X8725238Y-23969203D02*
X8677619Y-23921583D01*
X68911066Y-67297819D02*
X68911066Y-68012104D01*
X68911066Y-68012104D02*
X68863447Y-68154961D01*
X68863447Y-68154961D02*
X68768209Y-68250200D01*
X68768209Y-68250200D02*
X68625352Y-68297819D01*
X68625352Y-68297819D02*
X68530114Y-68297819D01*
X69815828Y-67631152D02*
X69815828Y-68297819D01*
X69577733Y-67250200D02*
X69339638Y-67964485D01*
X69339638Y-67964485D02*
X69958685Y-67964485D01*
D16*
%TO.C,J5*%
X45444000Y-8394800D02*
X45444000Y-61394700D01*
X45444000Y-8394800D02*
X57943800Y-8394800D01*
X47094000Y-15894900D02*
X47094000Y-53894900D01*
X48094000Y-16494900D02*
X48693900Y-15794900D01*
X48094700Y-52994900D02*
X48094000Y-16494900D01*
X48094700Y-53393700D02*
X48094700Y-52994900D01*
X48693900Y-15794900D02*
X52494000Y-16595000D01*
X48793200Y-54094800D02*
X48094700Y-53393700D01*
X52494000Y-16595000D02*
X55393900Y-17394800D01*
X52693900Y-53294900D02*
X48793200Y-54094800D01*
X54893300Y-16046100D02*
X48792700Y-14845400D01*
X54893800Y-53894900D02*
X48793200Y-55095500D01*
X55393900Y-17394800D02*
X55393900Y-52695000D01*
X55393900Y-52695000D02*
X52693900Y-53294900D01*
X56293800Y-18595000D02*
X56293800Y-51394700D01*
X57943800Y-61394700D02*
X45444000Y-61394700D01*
X57943800Y-61394700D02*
X57943800Y-8394800D01*
X47093400Y-15946000D02*
G75*
G02*
X48793403Y-14846192I1241600J-55400D01*
G01*
X48794000Y-55094800D02*
G75*
G02*
X47094000Y-53994900I-458518J1155023D01*
G01*
X54894800Y-16048200D02*
G75*
G02*
X56294798Y-18548300I-830440J-2107060D01*
G01*
X56295400Y-51392700D02*
G75*
G02*
X54895300Y-53892800I-2230255J-393108D01*
G01*
D17*
%TO.C,J1*%
X71927600Y-18557800D02*
X71927600Y-28837800D01*
X71927600Y-18557800D02*
X74527600Y-18557800D01*
X71927600Y-28837800D02*
X77127600Y-28837800D01*
X74527600Y-18557800D02*
X74527600Y-21157800D01*
X74527600Y-21157800D02*
X77127600Y-21157800D01*
X75797600Y-18557800D02*
X77127600Y-18557800D01*
X77127600Y-18557800D02*
X77127600Y-19887800D01*
X77127600Y-21157800D02*
X77127600Y-28837800D01*
%TO.C,J10*%
X77110000Y-35729000D02*
X78490000Y-35729000D01*
X77110000Y-37109000D02*
X77110000Y-35729000D01*
X77110000Y-38379000D02*
X77110000Y-66429000D01*
X77110000Y-38379000D02*
X79760000Y-38379000D01*
X77110000Y-66429000D02*
X82410000Y-66429000D01*
X79760000Y-35729000D02*
X82410000Y-35729000D01*
X79760000Y-38379000D02*
X79760000Y-35729000D01*
X82410000Y-35729000D02*
X82410000Y-66429000D01*
%TO.C,J2*%
X64764800Y-18608600D02*
X64764800Y-28888600D01*
X64764800Y-18608600D02*
X67364800Y-18608600D01*
X64764800Y-28888600D02*
X69964800Y-28888600D01*
X67364800Y-18608600D02*
X67364800Y-21208600D01*
X67364800Y-21208600D02*
X69964800Y-21208600D01*
X68634800Y-18608600D02*
X69964800Y-18608600D01*
X69964800Y-18608600D02*
X69964800Y-19938600D01*
X69964800Y-21208600D02*
X69964800Y-28888600D01*
%TO.C,J3*%
X79065000Y-18634000D02*
X79065000Y-28914000D01*
X79065000Y-18634000D02*
X81665000Y-18634000D01*
X79065000Y-28914000D02*
X84265000Y-28914000D01*
X81665000Y-18634000D02*
X81665000Y-21234000D01*
X81665000Y-21234000D02*
X84265000Y-21234000D01*
X82935000Y-18634000D02*
X84265000Y-18634000D01*
X84265000Y-18634000D02*
X84265000Y-19964000D01*
X84265000Y-21234000D02*
X84265000Y-28914000D01*
D16*
%TO.C,J6*%
X86164400Y-7492600D02*
X86164400Y-60492500D01*
X86164400Y-7492600D02*
X98664200Y-7492600D01*
X87814400Y-50292300D02*
X87814400Y-17492600D01*
X88714300Y-16192300D02*
X91414300Y-15592400D01*
X88714300Y-51492500D02*
X88714300Y-16192300D01*
X89214400Y-14992400D02*
X95315000Y-13791800D01*
X89214900Y-52841200D02*
X95315500Y-54041900D01*
X91414300Y-15592400D02*
X95315000Y-14792500D01*
X91614200Y-52292300D02*
X88714300Y-51492500D01*
X95315000Y-14792500D02*
X96013500Y-15493600D01*
X95414300Y-53092400D02*
X91614200Y-52292300D01*
X96013500Y-15493600D02*
X96013500Y-15892400D01*
X96013500Y-15892400D02*
X96014200Y-52392400D01*
X96014200Y-52392400D02*
X95414300Y-53092400D01*
X97014200Y-52992400D02*
X97014200Y-14992400D01*
X98664200Y-60492500D02*
X86164400Y-60492500D01*
X98664200Y-60492500D02*
X98664200Y-7492600D01*
X87812800Y-17494600D02*
G75*
G02*
X89212900Y-14994500I2230255J393108D01*
G01*
X89213400Y-52839100D02*
G75*
G02*
X87813402Y-50339000I830440J2107060D01*
G01*
X95314200Y-13792500D02*
G75*
G02*
X97014200Y-14892400I458518J-1155023D01*
G01*
X97014800Y-52941300D02*
G75*
G02*
X95314797Y-54041108I-1241600J55400D01*
G01*
D18*
%TO.C,J3*%
X1403700Y-18535002D02*
X1403700Y-28593402D01*
X1403700Y-28593402D02*
X15856300Y-28593402D01*
X15856300Y-18535002D02*
X1403700Y-18535002D01*
X15856300Y-28593402D02*
X15856300Y-18535002D01*
D19*
X1149700Y-20812003D02*
G75*
G02*
X387700Y-20812003I-381000J0D01*
G01*
X387700Y-20812003D02*
G75*
G02*
X1149700Y-20812003I381000J0D01*
G01*
D17*
%TO.C,J4*%
X66721400Y-35729000D02*
X68101400Y-35729000D01*
X66721400Y-37109000D02*
X66721400Y-35729000D01*
X66721400Y-38379000D02*
X66721400Y-66429000D01*
X66721400Y-38379000D02*
X69371400Y-38379000D01*
X66721400Y-66429000D02*
X72021400Y-66429000D01*
X69371400Y-35729000D02*
X72021400Y-35729000D01*
X69371400Y-38379000D02*
X69371400Y-35729000D01*
X72021400Y-35729000D02*
X72021400Y-66429000D01*
D19*
%TO.C,J9*%
X4947000Y-52958002D02*
G75*
G02*
X4185000Y-52958002I-381000J0D01*
G01*
X4185000Y-52958002D02*
G75*
G02*
X4947000Y-52958002I381000J0D01*
G01*
%TO.C,J8*%
X13146999Y-52910001D02*
G75*
G02*
X12384999Y-52910001I-381000J0D01*
G01*
X12384999Y-52910001D02*
G75*
G02*
X13146999Y-52910001I381000J0D01*
G01*
%TO.C,J1*%
X4910798Y-40748702D02*
G75*
G02*
X4148798Y-40748702I-381000J0D01*
G01*
X4148798Y-40748702D02*
G75*
G02*
X4910798Y-40748702I381000J0D01*
G01*
%TO.C,J7*%
X13146999Y-40718001D02*
G75*
G02*
X12384999Y-40718001I-381000J0D01*
G01*
X12384999Y-40718001D02*
G75*
G02*
X13146999Y-40718001I381000J0D01*
G01*
%TD*%
M02*
