G04 #@! TF.GenerationSoftware,KiCad,Pcbnew,9.0.2*
G04 #@! TF.CreationDate,2025-08-11T06:51:56-07:00*
G04 #@! TF.ProjectId,Output Board,4f757470-7574-4204-926f-6172642e6b69,rev?*
G04 #@! TF.SameCoordinates,Original*
G04 #@! TF.FileFunction,Soldermask,Top*
G04 #@! TF.FilePolarity,Negative*
%FSLAX46Y46*%
G04 Gerber Fmt 4.6, Leading zero omitted, Abs format (unit mm)*
G04 Created by KiCad (PCBNEW 9.0.2) date 2025-08-11 06:51:56*
%MOMM*%
%LPD*%
G01*
G04 APERTURE LIST*
%ADD10C,3.000000*%
%ADD11C,1.447800*%
%ADD12R,1.447800X1.447800*%
%ADD13C,1.320800*%
%ADD14C,2.250000*%
%ADD15R,2.250000X2.250000*%
G04 APERTURE END LIST*
D10*
X78000000Y-95660000D03*
D11*
X95373600Y-103457800D03*
D12*
X95373600Y-88217800D03*
D10*
X332000000Y-95660000D03*
X205000000Y-95660000D03*
D11*
X146072000Y-103407000D03*
D12*
X146072000Y-88167000D03*
D11*
X120672000Y-103407000D03*
D12*
X120672000Y-88167000D03*
D11*
X273199000Y-103407000D03*
D12*
X273199000Y-88167000D03*
D11*
X222322800Y-103508600D03*
D12*
X222322800Y-88268600D03*
D11*
X298472000Y-103407000D03*
D12*
X298472000Y-88167000D03*
D11*
X171319600Y-103508600D03*
D12*
X171319600Y-88268600D03*
D11*
X247468800Y-103508600D03*
D12*
X247468800Y-88268600D03*
D13*
X134515000Y-102645000D03*
X132514999Y-102645000D03*
X185315000Y-102645000D03*
X183314999Y-102645000D03*
X261515000Y-102645000D03*
X259514999Y-102645000D03*
X109115000Y-102645000D03*
X107114999Y-102645000D03*
X159915000Y-102645000D03*
X157914999Y-102645000D03*
X236115000Y-102645000D03*
X234114999Y-102645000D03*
X286915000Y-102645000D03*
X284914999Y-102645000D03*
X312315000Y-102645000D03*
X310314999Y-102645000D03*
D14*
X136430000Y-93160000D03*
X136430000Y-98260000D03*
X131330000Y-98260000D03*
X131330000Y-93160000D03*
D15*
X133880000Y-95660000D03*
D14*
X238030000Y-93160000D03*
X238030000Y-98260000D03*
X232930000Y-98260000D03*
X232930000Y-93160000D03*
D15*
X235480000Y-95660000D03*
D14*
X111030000Y-93160000D03*
X111030000Y-98260000D03*
X105930000Y-98260000D03*
X105930000Y-93160000D03*
D15*
X108480000Y-95660000D03*
D14*
X161830000Y-93160000D03*
X161830000Y-98260000D03*
X156730000Y-98260000D03*
X156730000Y-93160000D03*
D15*
X159280000Y-95660000D03*
D14*
X263200000Y-93160000D03*
X263200000Y-98260000D03*
X258100000Y-98260000D03*
X258100000Y-93160000D03*
D15*
X260650000Y-95660000D03*
D14*
X187230000Y-93160000D03*
X187230000Y-98260000D03*
X182130000Y-98260000D03*
X182130000Y-93160000D03*
D15*
X184680000Y-95660000D03*
D14*
X288830000Y-93160000D03*
X288830000Y-98260000D03*
X283730000Y-98260000D03*
X283730000Y-93160000D03*
D15*
X286280000Y-95660000D03*
D14*
X314230000Y-93160000D03*
X314230000Y-98260000D03*
X309130000Y-98260000D03*
X309130000Y-93160000D03*
D15*
X311680000Y-95660000D03*
M02*
