M48
; DRILL file {KiCad 9.0.2} date 2025-08-11T21:59:45-0700
; FORMAT={-:-/ absolute / inch / decimal}
; #@! TF.CreationDate,2025-08-11T21:59:45-07:00
; #@! TF.GenerationSoftware,Kicad,Pcbnew,9.0.2
; #@! TF.FileFunction,Plated,1,2,PTH
FMAT,2
INCH
; #@! TA.AperFunction,Plated,PTH,ViaDrill
T1C0.0118
; #@! TA.AperFunction,Plated,PTH,ComponentDrill
T2C0.0320
; #@! TA.AperFunction,Plated,PTH,ComponentDrill
T3C0.0370
; #@! TA.AperFunction,Plated,PTH,ComponentDrill
T4C0.0591
%
G90
G05
T1
X4.0869Y-3.8201
X5.0869Y-3.8201
X6.0869Y-3.8181
X7.0869Y-3.8121
X9.0869Y-3.8261
X10.0789Y-3.8181
X11.0889Y-3.8221
X12.0889Y-3.8121
T2
X4.2171Y-4.0411
X4.2959Y-4.0411
X5.2171Y-4.0411
X5.2959Y-4.0411
X6.2171Y-4.0411
X6.2959Y-4.0411
X7.2171Y-4.0411
X7.2959Y-4.0411
X9.2171Y-4.0411
X9.2959Y-4.0411
X10.2171Y-4.0411
X10.2959Y-4.0411
X11.2171Y-4.0411
X11.2959Y-4.0411
X12.2171Y-4.0411
X12.2959Y-4.0411
T3
X3.7549Y-3.4731
X3.7549Y-4.0731
X4.7509Y-3.4711
X4.7509Y-4.0711
X5.7509Y-3.4711
X5.7509Y-4.0711
X6.7449Y-3.4751
X6.7449Y-4.0751
X8.7529Y-3.4751
X8.7529Y-4.0751
X9.7429Y-3.4751
X9.7429Y-4.0751
X10.7559Y-3.4711
X10.7559Y-4.0711
X11.7509Y-3.4711
X11.7509Y-4.0711
T4
X4.1705Y-3.6677
X4.1705Y-3.8685
X4.2709Y-3.7661
X4.3713Y-3.6677
X4.3713Y-3.8685
X5.1705Y-3.6677
X5.1705Y-3.8685
X5.2709Y-3.7661
X5.3713Y-3.6677
X5.3713Y-3.8685
X6.1705Y-3.6677
X6.1705Y-3.8685
X6.2709Y-3.7661
X6.3713Y-3.6677
X6.3713Y-3.8685
X7.1705Y-3.6677
X7.1705Y-3.8685
X7.2709Y-3.7661
X7.3713Y-3.6677
X7.3713Y-3.8685
X9.1705Y-3.6677
X9.1705Y-3.8685
X9.2709Y-3.7661
X9.3713Y-3.6677
X9.3713Y-3.8685
X10.1614Y-3.6677
X10.1614Y-3.8685
X10.2618Y-3.7661
X10.3622Y-3.6677
X10.3622Y-3.8685
X11.1705Y-3.6677
X11.1705Y-3.8685
X11.2709Y-3.7661
X11.3713Y-3.6677
X11.3713Y-3.8685
X12.1705Y-3.6677
X12.1705Y-3.8685
X12.2709Y-3.7661
X12.3713Y-3.6677
X12.3713Y-3.8685
M30
