%TF.GenerationSoftware,KiCad,Pcbnew,9.0.2*%
%TF.CreationDate,2025-08-11T21:59:39-07:00*%
%TF.ProjectId,Output Board,4f757470-7574-4204-926f-6172642e6b69,rev?*%
%TF.SameCoordinates,Original*%
%TF.FileFunction,Soldermask,Bot*%
%TF.FilePolarity,Negative*%
%FSLAX46Y46*%
G04 Gerber Fmt 4.6, Leading zero omitted, Abs format (unit mm)*
G04 Created by KiCad (PCBNEW 9.0.2) date 2025-08-11 21:59:39*
%MOMM*%
%LPD*%
G01*
G04 APERTURE LIST*
G04 Aperture macros list*
%AMRoundRect*
0 Rectangle with rounded corners*
0 $1 Rounding radius*
0 $2 $3 $4 $5 $6 $7 $8 $9 X,Y pos of 4 corners*
0 Add a 4 corners polygon primitive as box body*
4,1,4,$2,$3,$4,$5,$6,$7,$8,$9,$2,$3,0*
0 Add four circle primitives for the rounded corners*
1,1,$1+$1,$2,$3*
1,1,$1+$1,$4,$5*
1,1,$1+$1,$6,$7*
1,1,$1+$1,$8,$9*
0 Add four rect primitives between the rounded corners*
20,1,$1+$1,$2,$3,$4,$5,0*
20,1,$1+$1,$4,$5,$6,$7,0*
20,1,$1+$1,$6,$7,$8,$9,0*
20,1,$1+$1,$8,$9,$2,$3,0*%
G04 Aperture macros list end*
%ADD10C,3.000000*%
%ADD11RoundRect,0.250000X-0.262500X-0.450000X0.262500X-0.450000X0.262500X0.450000X-0.262500X0.450000X0*%
%ADD12RoundRect,0.250000X0.250000X0.475000X-0.250000X0.475000X-0.250000X-0.475000X0.250000X-0.475000X0*%
%ADD13C,1.447800*%
%ADD14R,1.447800X1.447800*%
%ADD15RoundRect,0.250000X-0.250000X-0.475000X0.250000X-0.475000X0.250000X0.475000X-0.250000X0.475000X0*%
%ADD16C,1.320800*%
%ADD17C,2.250000*%
%ADD18R,2.250000X2.250000*%
G04 APERTURE END LIST*
D10*
X78000000Y-95660000D03*
D11*
X280080500Y-95660000D03*
X278255500Y-95660000D03*
D12*
X227418000Y-99216000D03*
X229318000Y-99216000D03*
D13*
X95373600Y-103457800D03*
D14*
X95373600Y-88217800D03*
D10*
X332000000Y-95660000D03*
X205000000Y-95660000D03*
D13*
X146072000Y-103407000D03*
D14*
X146072000Y-88167000D03*
D11*
X229280500Y-95660000D03*
X227455500Y-95660000D03*
D15*
X229318000Y-92104000D03*
X227418000Y-92104000D03*
D12*
X151218000Y-99216000D03*
X153118000Y-99216000D03*
D15*
X102445000Y-92154800D03*
X100545000Y-92154800D03*
X305518000Y-92053200D03*
X303618000Y-92053200D03*
D13*
X120672000Y-103407000D03*
D14*
X120672000Y-88167000D03*
D11*
X102407500Y-95660000D03*
X100582500Y-95660000D03*
D15*
X127680500Y-92154800D03*
X125780500Y-92154800D03*
D12*
X303541800Y-98885800D03*
X305441800Y-98885800D03*
X176635100Y-99216000D03*
X178535100Y-99216000D03*
D13*
X273199000Y-103407000D03*
D14*
X273199000Y-88167000D03*
D11*
X305480500Y-95431400D03*
X303655500Y-95431400D03*
X178431600Y-95660000D03*
X176606600Y-95660000D03*
D12*
X100545000Y-99216000D03*
X102445000Y-99216000D03*
D11*
X254530000Y-95583800D03*
X252705000Y-95583800D03*
X153080500Y-95660000D03*
X151255500Y-95660000D03*
D15*
X153118000Y-92104000D03*
X151218000Y-92104000D03*
D11*
X127680500Y-95660000D03*
X125855500Y-95660000D03*
D12*
X125780500Y-99190600D03*
X127680500Y-99190600D03*
D13*
X222322800Y-103508600D03*
D14*
X222322800Y-88268600D03*
D15*
X254542100Y-92104000D03*
X252642100Y-92104000D03*
D13*
X298472000Y-103407000D03*
D14*
X298472000Y-88167000D03*
D13*
X171319600Y-103508600D03*
D14*
X171319600Y-88268600D03*
D12*
X252667500Y-99063600D03*
X254567500Y-99063600D03*
X278218000Y-99216000D03*
X280118000Y-99216000D03*
D15*
X178469100Y-92104000D03*
X176569100Y-92104000D03*
D13*
X247468800Y-103508600D03*
D14*
X247468800Y-88268600D03*
D15*
X280118000Y-92104000D03*
X278218000Y-92104000D03*
D16*
X134515000Y-102645000D03*
X132514999Y-102645000D03*
X185315000Y-102645000D03*
X183314999Y-102645000D03*
X261515000Y-102645000D03*
X259514999Y-102645000D03*
X109115000Y-102645000D03*
X107114999Y-102645000D03*
X159915000Y-102645000D03*
X157914999Y-102645000D03*
X236115000Y-102645000D03*
X234114999Y-102645000D03*
X286915000Y-102645000D03*
X284914999Y-102645000D03*
X312315000Y-102645000D03*
X310314999Y-102645000D03*
D17*
X136430000Y-93160000D03*
X136430000Y-98260000D03*
X131330000Y-98260000D03*
X131330000Y-93160000D03*
D18*
X133880000Y-95660000D03*
D17*
X238030000Y-93160000D03*
X238030000Y-98260000D03*
X232930000Y-98260000D03*
X232930000Y-93160000D03*
D18*
X235480000Y-95660000D03*
D17*
X111030000Y-93160000D03*
X111030000Y-98260000D03*
X105930000Y-98260000D03*
X105930000Y-93160000D03*
D18*
X108480000Y-95660000D03*
D17*
X161830000Y-93160000D03*
X161830000Y-98260000D03*
X156730000Y-98260000D03*
X156730000Y-93160000D03*
D18*
X159280000Y-95660000D03*
D17*
X263200000Y-93160000D03*
X263200000Y-98260000D03*
X258100000Y-98260000D03*
X258100000Y-93160000D03*
D18*
X260650000Y-95660000D03*
D17*
X187230000Y-93160000D03*
X187230000Y-98260000D03*
X182130000Y-98260000D03*
X182130000Y-93160000D03*
D18*
X184680000Y-95660000D03*
D17*
X288830000Y-93160000D03*
X288830000Y-98260000D03*
X283730000Y-98260000D03*
X283730000Y-93160000D03*
D18*
X286280000Y-95660000D03*
D17*
X314230000Y-93160000D03*
X314230000Y-98260000D03*
X309130000Y-98260000D03*
X309130000Y-93160000D03*
D18*
X311680000Y-95660000D03*
M02*
